<svg xmlns="http://www.w3.org/2000/svg" width="1200" height="620" viewBox="0 0 1200 620">
<style>text{font-family:Inter,Arial,sans-serif;fill:#172033} .t{font-size:34px;font-weight:700} .s{font-size:22px} .m{font-size:18px} .box{fill:#f4f6fa;stroke:#67748a;stroke-width:2} .rank0{fill:#e8f0ff;stroke:#4169a1;stroke-width:2} .rank1{fill:#fff0e6;stroke:#a65f2c;stroke-width:2} .arrow{stroke:#26354a;stroke-width:3;marker-end:url(#a)} </style>
<defs><marker id="a" markerWidth="10" markerHeight="10" refX="9" refY="3" orient="auto"><path d="M0,0 L0,6 L9,3 z" fill="#26354a"/></marker></defs><text x="60" y="65" class="t">The gated expansion is column parallel; the down projection is row parallel</text>
<text x="60" y="105" class="s">Each rank owns matched gate, value, and down-projection slices of the intermediate width.</text>
<rect x="60" y="175" width="230" height="250" rx="16" class="box"/><text x="100" y="225" class="s">Dense fused gate/up</text><text x="125" y="265" class="m">Wgu [24, 8]</text><text x="110" y="315" class="m">gate [12, 8]</text><text x="118" y="350" class="m">up [12, 8]</text>
<line x1="290" y1="280" x2="355" y2="220" class="arrow"/><line x1="290" y1="320" x2="355" y2="390" class="arrow"/>
<rect x="365" y="150" width="290" height="145" rx="16" class="rank0"/><text x="420" y="200" class="s">Rank 0 local SwiGLU</text><text x="405" y="240" class="m">gate/up weight [12, 8]</text><text x="430" y="270" class="m">activation [3, 2, 6]</text>
<rect x="365" y="330" width="290" height="145" rx="16" class="rank1"/><text x="420" y="380" class="s">Rank 1 local SwiGLU</text><text x="405" y="420" class="m">gate/up weight [12, 8]</text><text x="430" y="450" class="m">activation [3, 2, 6]</text>
<line x1="655" y1="220" x2="735" y2="220" class="arrow"/><line x1="655" y1="400" x2="735" y2="400" class="arrow"/>
<rect x="745" y="150" width="250" height="145" rx="16" class="rank0"/><text x="800" y="200" class="s">Rank 0 down slice</text><text x="820" y="240" class="m">Wd [8, 6]</text><text x="790" y="270" class="m">partial [3, 2, 8]</text>
<rect x="745" y="330" width="250" height="145" rx="16" class="rank1"/><text x="800" y="380" class="s">Rank 1 down slice</text><text x="820" y="420" class="m">Wd [8, 6]</text><text x="790" y="450" class="m">partial [3, 2, 8]</text>
<line x1="995" y1="220" x2="1090" y2="300" class="arrow"/><line x1="995" y1="400" x2="1090" y2="325" class="arrow"/><text x="1050" y="285" class="m">SUM</text></svg>