<svg xmlns="http://www.w3.org/2000/svg" width="900" height="330"><rect width="100%" height="100%" fill="white"/><text x="20" y="30" font-size="21" font-weight="bold">Same request trace, different allocation policies</text><text x="20" y="83" font-size="15">Reserve max</text><rect x="180" y="65" width="560" height="24" fill="#888"/><rect x="476" y="65" width="264" height="24" fill="#ddd"/><text x="750" y="83" font-size="13">peak reserved 70, waste 33</text><text x="20" y="133" font-size="15">Grow contiguous</text><rect x="180" y="115" width="248" height="24" fill="#888"/><rect x="428" y="115" width="0" height="24" fill="#ddd"/><text x="438" y="133" font-size="13">peak reserved 31, waste 0</text><text x="20" y="183" font-size="15">Paged B=4</text><rect x="180" y="165" width="512" height="24" fill="#888"/><rect x="628" y="165" width="64" height="24" fill="#ddd"/><text x="702" y="183" font-size="13">peak reserved 64, waste 8</text><text x="20" y="233" font-size="15">Paged B=8</text><rect x="180" y="215" width="576" height="24" fill="#888"/><rect x="652" y="215" width="104" height="24" fill="#ddd"/><text x="766" y="233" font-size="13">peak reserved 72, waste 13</text><text x="20" y="283" font-size="15">Paged B=16</text><rect x="180" y="265" width="640" height="24" fill="#888"/><rect x="620" y="265" width="200" height="24" fill="#ddd"/><text x="830" y="283" font-size="13">peak reserved 80, waste 25</text></svg>